<svg width="19" height="19" viewBox="0 0 19 19" fill="none" xmlns="http://www.w3.org/2000/svg">
<path d="M14.2725 10.9091C14.0752 11.1003 13.9846 11.3767 14.0295 11.6479L14.7066 15.395C14.7637 15.7126 14.6297 16.034 14.3639 16.2176C14.1034 16.408 13.7569 16.4308 13.4728 16.2785L10.0996 14.5192C9.98233 14.4567 9.85209 14.4232 9.71881 14.4194H9.51242C9.44082 14.4301 9.37076 14.4529 9.30678 14.488L5.93285 16.2557C5.76605 16.3394 5.57717 16.3691 5.3921 16.3394C4.94123 16.2541 4.64039 15.8246 4.71427 15.3714L5.3921 11.6243C5.43704 11.3509 5.34641 11.0729 5.14915 10.8786L2.39897 8.21299C2.16897 7.98983 2.089 7.65472 2.1941 7.35236C2.29616 7.05076 2.55663 6.83065 2.87117 6.78115L6.65638 6.23202C6.94426 6.20232 7.19712 6.02715 7.32659 5.7682L8.99452 2.34854C9.03412 2.27238 9.08515 2.20231 9.14684 2.1429L9.21539 2.08959C9.25118 2.04998 9.29231 2.01723 9.33801 1.99058L9.42102 1.96011L9.5505 1.9068H9.87113C10.1575 1.9365 10.4096 2.10787 10.5414 2.36377L12.2314 5.7682C12.3532 6.01725 12.5901 6.19013 12.8635 6.23202L16.6487 6.78115C16.9686 6.82685 17.2359 7.04771 17.3418 7.35236C17.4415 7.65777 17.3555 7.99288 17.1209 8.21299L14.2725 10.9091Z" fill="#F6B76F"/>
</svg>
